# xmcd CD database file
#
# Track frame offsets:
#	150
#	30136
#	66517
#	109478
#	137614
#	160703
#	177646
#	205121
#	215734
#	228311
#	247697
#
# Disc length: 3597 seconds
#
# Revision: 0
# Processed by: cddbd v1.5.2PL0 Copyright (c) Steve Scherf et al.
# Submitted via: CDex 1.70beta2
#
DISCID=960e0b0b
DTITLE=Donald Byrd - Birdhouse
DYEAR=1900
DGENRE=Jazz
TTITLE0=Curro's
TTITLE1=Mr. Lucky's Theme
TTITLE2=Out Of This World
TTITLE3=Birdhouse
TTITLE4=Daydreams
TTITLE5=Chasing The Bird
TTITLE6=Ping Pong
TTITLE7=Construction
TTITLE8=November Afternoon
TTITLE9=Call To Arms
TTITLE10=Wee Tina
EXTD=
EXTT0=
EXTT1=
EXTT2=
EXTT3=
EXTT4=
EXTT5=
EXTT6=
EXTT7=
EXTT8=
EXTT9=
EXTT10=
PLAYORDER=
